<svg width="201" height="201" viewBox="0 0 201 201" fill="none" xmlns="http://www.w3.org/2000/svg">
<circle cx="100.452" cy="100.621" r="100" fill="#306094"/>
<path fill-rule="evenodd" clip-rule="evenodd" d="M69.8566 52.6057C55.675 52.6057 44.1786 64.1022 44.1786 78.2837V115.436C44.1786 117.093 45.5217 118.436 47.1786 118.436H48.2545C49.9114 118.436 51.2545 117.093 51.2545 115.436V78.228C51.2545 67.9543 59.583 59.6259 69.8567 59.6259C79.0019 59.6259 86.6058 66.2253 88.1658 74.9216C88.4542 76.5292 89.7617 77.8451 91.395 77.8451H92.4802C94.1567 77.8451 95.5258 76.4646 95.3007 74.8033C93.6021 62.2679 82.8577 52.6057 69.8566 52.6057Z" fill="white"/>
<path fill-rule="evenodd" clip-rule="evenodd" d="M69.8529 148.637C84.0344 148.637 95.5309 137.14 95.5309 122.959L95.5309 85.8068C95.5309 84.1499 94.1877 82.8068 92.5309 82.8068L91.455 82.8068C89.7981 82.8068 88.455 84.1499 88.455 85.8068L88.455 123.015C88.455 133.288 80.1265 141.617 69.8528 141.617C60.7075 141.617 53.1036 135.017 51.5436 126.321C51.2553 124.713 49.9477 123.397 48.3145 123.397L47.2292 123.397C45.5527 123.397 44.1837 124.778 44.4088 126.439C46.1073 138.975 56.8517 148.637 69.8529 148.637Z" fill="#F0D301"/>
<path fill-rule="evenodd" clip-rule="evenodd" d="M101.349 57.7802C101.349 56.1233 102.693 54.7802 104.349 54.7802H104.501C104.946 54.7802 105.368 54.8769 105.747 55.0506C106.118 55.2203 106.494 55.3917 106.861 55.57C107.354 55.8098 107.785 56.2004 108.087 56.7259L126.58 88.9464C127.733 90.9552 130.631 90.9552 131.784 88.9463L149.989 57.2263C150.125 56.9891 150.287 56.7793 150.47 56.5986C150.812 56.26 151.169 55.9246 151.519 55.5948C152.056 55.0897 152.779 54.7802 153.575 54.7802H153.726C155.383 54.7802 156.726 56.1233 156.726 57.7802V115.436C156.726 117.093 155.383 118.436 153.726 118.436H153.575C151.918 118.436 150.575 117.093 150.575 115.436V80.033C150.575 76.9596 146.503 75.8741 144.973 78.5397L131.912 101.296C131.05 102.798 129.178 103.245 127.73 102.297C127.703 102.279 127.676 102.26 127.649 102.242C127.458 102.108 127.264 101.976 127.073 101.841C126.741 101.607 126.452 101.296 126.231 100.912L113.103 78.0382C111.573 75.3727 107.501 76.4583 107.501 79.5316V141.096C107.501 142.753 106.158 144.096 104.501 144.096H104.349C102.693 144.096 101.349 142.753 101.349 141.096V57.7802ZM153.575 123.317C151.918 123.317 150.575 124.66 150.575 126.317V141.096C150.575 142.753 151.918 144.096 153.575 144.096H153.726C155.383 144.096 156.726 142.753 156.726 141.096V126.317C156.726 124.66 155.383 123.317 153.726 123.317H153.575Z" fill="white"/>
<path fill-rule="evenodd" clip-rule="evenodd" d="M150.575 126.317C150.575 124.66 151.918 123.317 153.575 123.317H153.726C155.383 123.317 156.726 124.66 156.726 126.317V141.096C156.726 142.753 155.383 144.096 153.726 144.096H153.575C151.918 144.096 150.575 142.753 150.575 141.096V126.317Z" fill="#FBB1B0"/>
</svg>
